<svg xmlns="http://www.w3.org/2000/svg" viewBox="-53 358.9 488.2 124">
  <style type="text/css">
    
	.st0{fill:#FEEA39;}
	.st1{fill:#14B0CB;}
	.st2{fill:#2D3233;}

  </style>
  <path class="st0" d="M71.3 420.9c0 34.2-27.8 62-62 62 -34.3 0-62-27.8-62-62 0-34.3 27.8-62 62-62S71.3 386.7 71.3 420.9z"/>
    <path class="st1" d="M50.2 433.3c-0.2 1.8-0.8 3.8-1.7 5.7 -0.9 2-1.9 3.7-3 5.3 -1.1 1.6-2 2.9-2.9 3.9 -0.8 1-1.3 1.6-1.4 1.7 -3.7 4-7.9 7.1-12.7 9.5 -4.8 2.4-9.9 3.8-15.4 4.2 -5.9 0.5-11.5-0.2-16.9-2.1 -5.3-1.9-10.1-4.6-14.2-8.1s-7.5-7.9-10.1-12.9c-2.6-5.1-4.2-10.5-4.6-16.4 -0.5-5.9 0.2-11.5 2-16.9 1.1-3.1 2.4-6.1 4-8.8 -0.4-0.5-0.8-1.1-1.2-1.7 -1.8-2.9-2.1-5.7-1-8.4 1.1-3.1 3.5-5.2 7.2-6.3 3.6-1 7.5-0.8 11.9 0.6 4.9-2.6 10.3-4.2 16.2-4.6 6.2-0.5 12.2 0.3 17.8 2.2 0.3 0.1 0.5 0.2 0.7 0.3 0.1 0 0.1 0.1 0.2 0.1 0.3 0.1 0.7 0.3 1 0.4s0.5 0.2 0.8 0.4c0.3 0.1 0.6 0.3 0.9 0.4 0.3 0.2 0.5 0.3 0.8 0.5 2 1.4 3.5 3 4.5 4.6 0.9 1.6 1.4 3.4 1.4 5.2 0 1.6-0.3 3-0.9 4.4s-1.3 2.6-2 3.6c-0.2 0.2-0.3 0.4-0.3 0.4 -0.2 0.2-0.3 0.3-0.5 0.6 -0.2 0.2-0.2 0.2-0.4 0.5 -0.2 0.2-0.4 0.5-0.8 0.9 -0.1 0.1-0.2 0.1-0.2 0.2l-0.2 0.2c-0.1 0.1-0.2 0.2-0.4 0.3l-0.5 0.5 -39 39c-1 1.2-2.2 1.3-3.4 0.3 -0.3-0.5-0.4-1.1-0.5-1.8 0-0.7 0.1-1.2 0.5-1.4l32.8-32.9 8.8-8.8 0.6-0.6c0.4-0.6 0.7-1.2 1-1.9 0.5-1.1 0.8-2.2 1-3.4 -0.3-2-1.4-4-3.5-5.7l0 0c-1.6-0.8-3.2-1.4-4.8-2 -0.1 0-0.2 0-0.3-0.1 -3.1-1-6.2-1.6-9.4-1.8 -1.8-0.1-3.5-0.1-5.3 0.1 -3.9 0.3-7.5 1.1-11 2.5 -1.2 0.5-2.4 1-3.5 1.6 -0.5 0.3-1.1 0.6-1.6 0.9l-1.5-0.7c-1.5-0.5-2.8-0.8-4.2-1 -1.6-0.2-3.2-0.1-4.6 0.2 -2.7 0.5-4.4 1.7-4.9 3.6 -0.5 1.5-0.3 3.1 0.8 4.7 0.1 0.2 0.2 0.3 0.3 0.5 0.8 1 1.8 2 2.9 2.8 -0.9 1.3-1.8 2.6-2.6 4 -1.3 2.2-2.3 4.6-3.1 7 -1.6 4.8-2.2 9.8-1.8 15 0.4 5.2 1.8 10.1 4.1 14.6s5.4 8.3 9 11.5c3.7 3.2 7.9 5.6 12.6 7.2 4.8 1.6 9.7 2.2 15 1.8 4.9-0.4 9.4-1.6 13.7-3.6 4.2-2.1 8-4.8 11.4-8.3 0.4-0.5 1-1.3 1.9-2.4 0.8-1.1 1.6-2.3 2.4-3.6h-0.6c-1 0.1-1.8-0.4-2.2-1.5 -0.4-0.8-0.2-1.6 0.5-2.4l4.9-4.7c0.3-0.4 0.7-0.6 1.1-0.7 0.2-0.3 0.3-0.5 0.6-0.6 0.5-0.4 1-0.5 1.6-0.3s1.1 0.5 1.6 0.9C50.2 432 50.4 432.6 50.2 433.3z"/>
    <path class="st2" d="M147.5 412.4l-30 9.7c0.4 1.8 1.1 3.4 2 4.8 0.9 1.5 2 2.7 3.3 3.8 1.3 1 2.7 1.9 4.3 2.4 1.6 0.6 3.3 0.9 5.1 0.9 2.7 0 5.3-0.7 7.7-2s4.6-2.8 6.6-4.5v5.9c-2.2 2-4.6 3.5-7.2 4.4s-5.1 1.3-7.7 1.2 -5-0.6-7.4-1.6c-2.3-1-4.4-2.4-6.2-4.2 -1.8-1.8-3.3-3.9-4.3-6.4 -1.1-2.5-1.6-5.3-1.6-8.4 0-4.1 0.8-7.5 2.4-10.3 1.6-2.8 3.6-5 6-6.6s5.1-2.5 8-2.8 5.7 0 8.3 0.9 4.9 2.4 6.8 4.6C145.7 406.3 147 409 147.5 412.4zM140.6 409.8c-0.6-1.9-1.6-3.3-3-4.4s-2.9-1.7-4.6-2c-1.7-0.3-3.5-0.2-5.3 0.3s-3.5 1.3-5 2.5 -2.8 2.8-3.8 4.8c-1 1.9-1.6 4.3-1.7 6.9L140.6 409.8z"/>
    <path class="st2" d="M189.5 403.1h-7.8c1.7 1.9 2.8 3.9 3.4 6s0.8 4.2 0.4 6.2c-0.3 2-1.1 4-2.4 5.8s-3 3.4-5 4.7c2.5 1.2 4.4 2.7 5.8 4.6s2.3 4 2.7 6.2c0.4 2.2 0.3 4.5-0.2 6.8 -0.6 2.3-1.5 4.3-3 6.2 -1.4 1.8-3.3 3.3-5.5 4.5 -2.3 1.1-4.9 1.7-8 1.7s-5.7-0.6-8-1.8c-2.3-1.2-4.1-2.7-5.6-4.6 -1.4-1.9-2.4-3.9-3-6.2s-0.6-4.5-0.2-6.8c0.4-2.2 1.4-4.3 2.8-6.1 1.5-1.9 3.5-3.3 6-4.4 -2.3-1.2-4.2-2.8-5.4-4.6 -1.3-1.8-2.1-3.8-2.4-5.8 -0.3-2.1-0.2-4.1 0.4-6.1 0.6-2 1.6-3.9 3-5.5 1.4-1.7 3.1-3 5.3-4 2.1-1 4.6-1.5 7.4-1.5 2.6 0 4.9 0.6 7.1 1.7v-0.5l12.1-1.3L189.5 403.1 189.5 403.1zM181.5 439.6c0-2.4-0.6-4.4-1.7-6.1s-2.6-2.9-4.3-3.8c-1.7-0.9-3.6-1.3-5.6-1.3s-3.8 0.4-5.6 1.2c-1.7 0.8-3.2 2.1-4.3 3.8 -1.1 1.7-1.7 3.8-1.7 6.4 0 1.8 0.3 3.4 1 4.8s1.5 2.5 2.6 3.4 2.3 1.6 3.7 2c1.4 0.5 2.8 0.7 4.2 0.7s2.9-0.2 4.3-0.7 2.7-1.1 3.8-2.1c1.1-0.9 2-2.1 2.6-3.5C181.2 443.1 181.5 441.5 181.5 439.6zM180.3 413.8c0-1.7-0.3-3.2-0.9-4.5s-1.4-2.4-2.4-3.3 -2.1-1.5-3.4-2c-1.3-0.4-2.5-0.6-3.8-0.6s-2.5 0.2-3.8 0.7 -2.4 1.1-3.4 2 -1.8 2-2.4 3.4c-0.6 1.4-0.9 2.9-0.9 4.7 0 1.6 0.3 3 0.9 4.2 0.6 1.2 1.4 2.2 2.4 3s2.1 1.4 3.3 1.8c1.2 0.4 2.5 0.6 3.8 0.6s2.6-0.2 3.9-0.6 2.4-1 3.3-1.8c1-0.8 1.7-1.9 2.3-3.1C179.9 417 180.2 415.5 180.3 413.8L180.3 413.8z"/>
    <path class="st2" d="M214.3 405.6c-0.7-0.6-1.3-1.2-2-1.6 -0.6-0.4-1.4-0.6-2.4-0.6 -1.3 0-2.6 0.4-3.9 1.3s-2.5 1.9-3.6 3.2c-1.1 1.3-1.9 2.7-2.6 4.1 -0.7 1.5-1 2.8-1 4v21.7l-5 0.9v-38.9l5-0.7v8.3c0.8-1.4 1.9-2.9 3.3-4.3s2.9-2.6 4.6-3.4 3.4-1.2 5.1-1.1c1.8 0.1 3.4 0.9 5 2.5L214.3 405.6z"/>
    <path class="st2" d="M228 454.7l-4.9-0.6 11.3-23.4 -16.7-31.4 5.1-0.5 14.3 26.7 13-26.8 5 0.6L228 454.7z"/>
    <path class="st2" d="M290.7 433.2L290 438h-33.6l-0.4-1 25.8-32.7h-23.4l0.6-4.9h31.4l0.3 1 -25.8 32.7h25.8V433.2z"/>
    <path class="st2" d="M333.4 426.6c-1 2.5-2.4 4.6-4.2 6.4 -1.8 1.8-3.9 3.3-6.4 4.4s-5 1.6-7.8 1.6 -5.4-0.5-7.8-1.6 -4.5-2.5-6.3-4.4c-1.8-1.8-3.2-4-4.2-6.4 -1-2.5-1.5-5.1-1.5-7.8 0-2.8 0.5-5.4 1.5-7.9s2.4-4.6 4.2-6.5c1.8-1.8 3.9-3.3 6.3-4.4s5.1-1.6 7.9-1.6 5.5 0.5 7.9 1.6 4.5 2.5 6.3 4.4c1.8 1.8 3.2 4 4.2 6.5s1.5 5.1 1.5 7.9C334.9 421.5 334.4 424.1 333.4 426.6zM328.6 412.8c-0.7-1.9-1.8-3.5-3.1-4.9 -1.3-1.4-2.9-2.5-4.7-3.4 -1.8-0.8-3.8-1.2-5.8-1.2s-4 0.4-5.8 1.3 -3.4 2-4.7 3.4c-1.3 1.4-2.3 3.1-3.1 4.9 -0.7 1.9-1.1 3.8-1.1 5.8s0.4 4 1.1 5.8c0.7 1.9 1.8 3.5 3.1 4.9 1.3 1.4 2.9 2.5 4.7 3.4 1.8 0.8 3.7 1.2 5.8 1.2s4-0.4 5.8-1.2c1.8-0.8 3.4-1.9 4.7-3.4 1.3-1.4 2.3-3.1 3.1-4.9 0.7-1.9 1.1-3.8 1.1-5.8h0.1C329.8 416.6 329.4 414.7 328.6 412.8z"/>
    <path class="st2" d="M369 438.5v-24.6c0-3.1-0.8-5.7-2.3-7.8 -1.5-2-4-3-7.3-3 -2.4 0-4.5 0.6-6.4 1.9 -1.8 1.3-3.3 2.9-4.4 5.1 -0.1 0.1-0.2 0.4-0.4 0.9 -0.2 0.5-0.3 0.8-0.3 0.9v25.8l-5 0.9v-38.9c1.6-0.3 3.2-0.7 4.9-1.2v6.2c1.4-1.9 3-3.4 5-4.5 1.9-1.1 4.1-1.6 6.6-1.6 4.8 0 8.4 1.4 10.9 4.2 2.5 2.8 3.7 6.5 3.7 11.2v23.8L369 438.5z"/>
    <path class="st2" d="M390.4 391.2c-0.6 0.5-1.3 0.7-2.1 0.7 -0.7 0-1.4-0.3-2-0.8s-0.9-1.2-0.9-2.2 0.3-1.8 0.9-2.2c0.6-0.5 1.3-0.7 2-0.7 0.8 0 1.5 0.3 2.1 0.8s0.9 1.2 0.9 2.2S391 390.7 390.4 391.2zM386.1 438.5V400c0.8-0.3 1.6-0.5 2.4-0.8s1.6-0.5 2.4-0.8v39.2L386.1 438.5z"/>
    <path class="st2" d="M435.5 412.4l-30 9.7c0.4 1.8 1.1 3.4 2 4.8 0.9 1.5 2 2.7 3.3 3.8 1.3 1 2.7 1.9 4.3 2.4 1.6 0.6 3.3 0.9 5.1 0.9 2.7 0 5.3-0.7 7.7-2 2.4-1.3 4.6-2.8 6.6-4.5v5.9c-2.2 2-4.6 3.5-7.2 4.4s-5.1 1.3-7.7 1.2c-2.6-0.1-5-0.6-7.4-1.6 -2.3-1-4.4-2.4-6.2-4.2 -1.8-1.8-3.3-3.9-4.3-6.4 -1.1-2.5-1.6-5.3-1.6-8.4 0-4.1 0.8-7.5 2.4-10.3s3.6-5 6-6.6 5.1-2.5 8-2.8 5.7 0 8.3 0.9c2.6 0.9 4.9 2.4 6.8 4.6C433.7 406.3 435 409 435.5 412.4zM428.6 409.8c-0.6-1.9-1.6-3.3-3-4.4s-2.9-1.7-4.6-2c-1.7-0.3-3.5-0.2-5.3 0.3s-3.5 1.3-5 2.5 -2.8 2.8-3.8 4.8c-1 1.9-1.6 4.3-1.7 6.9L428.6 409.8z"/>
</svg>