<svg xmlns="http://www.w3.org/2000/svg" viewBox="70.5 459.1 323.4 69.8">
  <style type="text/css">
    
	.st0{fill:#202020;}

  </style>
    <path class="st0" d="M105.9 485.5l-30 9.7c0.4 1.8 1.1 3.4 2 4.8 0.9 1.5 2 2.7 3.3 3.8 1.3 1 2.7 1.9 4.3 2.4 1.6 0.6 3.3 0.9 5.1 0.9 2.7 0 5.3-0.7 7.7-2s4.6-2.8 6.6-4.5v5.9c-2.2 2-4.6 3.5-7.2 4.4s-5.1 1.3-7.7 1.2 -5-0.6-7.4-1.6c-2.3-1-4.4-2.4-6.2-4.2 -1.8-1.8-3.3-3.9-4.3-6.4 -1.1-2.5-1.6-5.3-1.6-8.4 0-4.1 0.8-7.5 2.4-10.3 1.6-2.8 3.6-5 6-6.6s5.1-2.5 8-2.8 5.7 0 8.3 0.9 4.9 2.4 6.8 4.6C104.1 479.4 105.4 482.2 105.9 485.5zM99 482.9c-0.6-1.9-1.6-3.3-3-4.4s-2.9-1.7-4.6-2c-1.7-0.3-3.5-0.2-5.3 0.3s-3.5 1.3-5 2.5 -2.8 2.8-3.8 4.8c-1 1.9-1.6 4.3-1.7 6.9L99 482.9z"/>
    <path class="st0" d="M147.9 476.2h-7.8c1.7 1.9 2.8 3.9 3.4 6s0.8 4.2 0.4 6.2c-0.3 2-1.1 4-2.4 5.8s-3 3.4-5 4.7c2.5 1.2 4.4 2.7 5.8 4.6s2.3 4 2.7 6.2c0.4 2.2 0.3 4.5-0.2 6.8 -0.6 2.3-1.5 4.3-3 6.2 -1.4 1.8-3.3 3.3-5.5 4.5 -2.3 1.1-4.9 1.7-8 1.7s-5.7-0.6-8-1.8 -4.1-2.7-5.6-4.6c-1.4-1.9-2.4-3.9-3-6.2 -0.6-2.3-0.6-4.5-0.2-6.8 0.4-2.2 1.4-4.3 2.8-6.1 1.5-1.9 3.5-3.3 6-4.4 -2.3-1.2-4.2-2.8-5.4-4.6 -1.3-1.8-2.1-3.8-2.4-5.8 -0.3-2.1-0.2-4.1 0.4-6.1 0.6-2 1.6-3.9 3-5.5 1.4-1.7 3.1-3 5.3-4 2.1-1 4.6-1.5 7.4-1.5 2.6 0 4.9 0.6 7.1 1.7v-0.5l12.1-1.3v4.8H147.9zM139.9 512.7c0-2.4-0.6-4.4-1.7-6.1s-2.6-2.9-4.3-3.8c-1.7-0.9-3.6-1.3-5.6-1.3s-3.8 0.4-5.6 1.2c-1.7 0.8-3.2 2.1-4.3 3.8 -1.1 1.7-1.7 3.8-1.7 6.4 0 1.8 0.3 3.4 1 4.8 0.7 1.4 1.5 2.5 2.6 3.4 1.1 0.9 2.3 1.6 3.7 2 1.4 0.5 2.8 0.7 4.2 0.7s2.9-0.2 4.3-0.7 2.7-1.1 3.8-2.1c1.1-0.9 2-2.1 2.6-3.5C139.6 516.2 139.9 514.6 139.9 512.7zM138.7 486.9c0-1.7-0.3-3.2-0.9-4.5s-1.4-2.4-2.4-3.3 -2.1-1.5-3.4-2c-1.3-0.4-2.5-0.6-3.8-0.6s-2.5 0.2-3.8 0.7 -2.4 1.1-3.4 2 -1.8 2-2.4 3.4 -0.9 2.9-0.9 4.7c0 1.6 0.3 3 0.9 4.2s1.4 2.2 2.4 3 2.1 1.4 3.3 1.8c1.2 0.4 2.5 0.6 3.8 0.6s2.6-0.2 3.9-0.6 2.4-1 3.3-1.8c1-0.8 1.7-1.9 2.3-3.1C138.3 490.1 138.6 488.6 138.7 486.9L138.7 486.9z"/>
    <path class="st0" d="M172.7 478.7c-0.7-0.6-1.3-1.2-2-1.6 -0.6-0.4-1.4-0.6-2.4-0.6 -1.3 0-2.6 0.4-3.9 1.3s-2.5 1.9-3.6 3.2c-1.1 1.3-1.9 2.7-2.6 4.1 -0.7 1.5-1 2.8-1 4v21.7l-5 0.9v-38.9l5-0.7v8.3c0.8-1.4 1.9-2.9 3.3-4.3s2.9-2.6 4.6-3.4 3.4-1.2 5.1-1.1c1.8 0.1 3.4 0.9 5 2.5L172.7 478.7z"/>
    <path class="st0" d="M186.4 527.8l-4.9-0.6 11.3-23.4 -16.7-31.4 5.1-0.5 14.3 26.7 13-26.8 5 0.6L186.4 527.8z"/>
    <path class="st0" d="M249.1 506.3l-0.7 4.8h-33.6l-0.4-1 25.8-32.7h-23.4l0.6-4.9h31.4l0.3 1 -25.7 32.8H249.1z"/>
    <path class="st0" d="M291.8 499.7c-1 2.5-2.4 4.6-4.2 6.4 -1.8 1.8-3.9 3.3-6.4 4.4s-5 1.6-7.8 1.6 -5.4-0.5-7.8-1.6 -4.5-2.5-6.3-4.4c-1.8-1.8-3.2-4-4.2-6.4 -1-2.5-1.5-5.1-1.5-7.8 0-2.8 0.5-5.4 1.5-7.9s2.4-4.6 4.2-6.5c1.8-1.8 3.9-3.3 6.3-4.4s5.1-1.6 7.9-1.6 5.5 0.5 7.9 1.6 4.5 2.5 6.3 4.4c1.8 1.8 3.2 4 4.2 6.5s1.5 5.1 1.5 7.9C293.3 494.6 292.8 497.2 291.8 499.7zM287 485.9c-0.7-1.9-1.8-3.5-3.1-4.9 -1.3-1.4-2.9-2.5-4.7-3.4 -1.8-0.8-3.8-1.2-5.8-1.2s-4 0.4-5.8 1.3 -3.4 2-4.7 3.4c-1.3 1.4-2.3 3.1-3.1 4.9 -0.7 1.9-1.1 3.8-1.1 5.8s0.4 4 1.1 5.8c0.7 1.9 1.8 3.5 3.1 4.9 1.3 1.4 2.9 2.5 4.7 3.4 1.8 0.8 3.7 1.2 5.8 1.2s4-0.4 5.8-1.2c1.8-0.8 3.4-1.9 4.7-3.4 1.3-1.4 2.3-3.1 3.1-4.9 0.7-1.9 1.1-3.8 1.1-5.8h0.1C288.2 489.8 287.8 487.8 287 485.9z"/>
    <path class="st0" d="M327.4 511.6V487c0-3.1-0.8-5.7-2.3-7.8 -1.5-2-4-3-7.3-3 -2.4 0-4.5 0.6-6.4 1.9 -1.8 1.3-3.3 2.9-4.4 5.1 -0.1 0.1-0.2 0.4-0.4 0.9 -0.2 0.5-0.3 0.8-0.3 0.9v25.8l-5 0.9v-38.9c1.6-0.3 3.2-0.7 4.9-1.2v6.2c1.4-1.9 3-3.4 5-4.5 1.9-1.1 4.1-1.6 6.6-1.6 4.8 0 8.4 1.4 10.9 4.2 2.5 2.8 3.7 6.5 3.7 11.2v23.8L327.4 511.6z"/>
    <path class="st0" d="M348.8 464.3c-0.6 0.5-1.3 0.7-2.1 0.7 -0.7 0-1.4-0.3-2-0.8s-0.9-1.2-0.9-2.2 0.3-1.8 0.9-2.2c0.6-0.5 1.3-0.7 2-0.7 0.8 0 1.5 0.3 2.1 0.8s0.9 1.2 0.9 2.2S349.4 463.8 348.8 464.3zM344.5 511.6v-38.5c0.8-0.3 1.6-0.5 2.4-0.8s1.6-0.5 2.4-0.8v39.2L344.5 511.6z"/>
    <path class="st0" d="M393.9 485.5l-30 9.7c0.4 1.8 1.1 3.4 2 4.8 0.9 1.5 2 2.7 3.3 3.8 1.3 1 2.7 1.9 4.3 2.4 1.6 0.6 3.3 0.9 5.1 0.9 2.7 0 5.3-0.7 7.7-2s4.6-2.8 6.6-4.5v5.9c-2.2 2-4.6 3.5-7.2 4.4s-5.1 1.3-7.7 1.2c-2.6-0.1-5-0.6-7.4-1.6 -2.3-1-4.4-2.4-6.2-4.2 -1.8-1.8-3.3-3.9-4.3-6.4 -1.1-2.5-1.6-5.3-1.6-8.4 0-4.1 0.8-7.5 2.4-10.3s3.6-5 6-6.6 5.1-2.5 8-2.8 5.7 0 8.3 0.9 4.9 2.4 6.8 4.6C392.1 479.4 393.4 482.2 393.9 485.5zM387 482.9c-0.6-1.9-1.6-3.3-3-4.4s-2.9-1.7-4.6-2c-1.7-0.3-3.5-0.2-5.3 0.3s-3.5 1.3-5 2.5 -2.8 2.8-3.8 4.8c-1 1.9-1.6 4.3-1.7 6.9L387 482.9z"/>
</svg>